<?xml version="1.0" encoding="utf-8"?>
<!-- Generator: Adobe Illustrator 27.8.1, SVG Export Plug-In . SVG Version: 6.00 Build 0)  -->
<svg version="1.1" id="Layer_1" xmlns="http://www.w3.org/2000/svg" xmlns:xlink="http://www.w3.org/1999/xlink" x="0px" y="0px"
	 viewBox="0 0 615 615" style="enable-background:new 0 0 615 615;" xml:space="preserve">
<style type="text/css">
	.st0{opacity:0.1;}
	.st1{fill:#2F383A;}
	.st2{fill:#566063;}
	.st3{fill:url(#SVGID_1_);}
	.st4{fill:#3A3C3E;}
	.st5{fill:url(#SVGID_00000183967132565566562130000005269650715843993987_);}
	.st6{fill:url(#SVGID_00000178187162807735748650000017121375580173964176_);}
	.st7{fill:#2DB56E;}
	.st8{fill:url(#SVGID_00000029755731198176777270000013912968169188824458_);}
	.st9{fill:url(#SVGID_00000132774497545885526980000016402958194630017723_);}
	.st10{fill:url(#SVGID_00000169523064358433151790000014248204115069085367_);}
	.st11{fill:url(#SVGID_00000120517840967203775710000000327170324099327924_);}
	.st12{fill:url(#SVGID_00000080913692431399935220000004290118373470915974_);}
	.st13{fill:url(#SVGID_00000018941508851799885710000000751253903624337827_);}
	.st14{fill:url(#SVGID_00000044867020325768043710000011618586372910293377_);}
	.st15{fill:url(#SVGID_00000112594811120836825840000008893475055502682274_);}
	.st16{fill:#00BC70;}
	.st17{opacity:7.000000e-02;enable-background:new    ;}
	.st18{opacity:0.15;fill:url(#SVGID_00000165218665894086257680000017909134394576987797_);enable-background:new    ;}
	.st19{opacity:3.000000e-02;enable-background:new    ;}
	.st20{opacity:0.15;fill:url(#SVGID_00000024703450612836749330000009768777824125310624_);enable-background:new    ;}
	.st21{fill:#3E4C51;}
	.st22{fill:url(#SVGID_00000160166196689438969170000001923010192238902938_);}
	.st23{fill:url(#SVGID_00000183234327170137858500000011063392886857297063_);}
	.st24{fill:url(#SVGID_00000034084295669084995530000016228122202467257533_);}
	.st25{fill:#21292A;}
	.st26{opacity:0.4;fill:url(#SVGID_00000005975255465269175720000012459160928124399527_);enable-background:new    ;}
	.st27{opacity:0.7;fill:#C4CFD2;enable-background:new    ;}
	.st28{opacity:0.5;fill:#C4CFD2;enable-background:new    ;}
	.st29{opacity:0.1;fill:#FFFFFF;enable-background:new    ;}
	.st30{opacity:0.2;fill:#FFFFFF;enable-background:new    ;}
	.st31{fill:#F37432;}
	.st32{fill:url(#SVGID_00000021106393879572289560000018356222310191076287_);}
	.st33{fill:#010101;}
	.st34{fill:#FFFFFF;}
	.st35{fill:url(#SVGID_00000062175073632578907180000016125114404347053708_);}
	.st36{clip-path:url(#SVGID_00000069397224211788961340000006975164742094582152_);}
	.st37{filter:url(#Adobe_OpacityMaskFilter);}
	.st38{clip-path:url(#SVGID_00000062171503291726563900000003470310263558330257_);}
	.st39{clip-path:url(#SVGID_00000153673345407876386540000016359201683238802563_);}
	
		.st40{clip-path:url(#SVGID_00000049926553576113501150000014078345584011883184_);fill:url(#SVGID_00000003098605678997281350000007138577431648483737_);}
	
		.st41{clip-path:url(#SVGID_00000062171503291726563900000003470310263558330257_);mask:url(#SVGID_00000111877276019040305720000018184333288961983401_);fill:url(#SVGID_00000182508574525270145180000017167786890978550678_);}
	.st42{fill:url(#SVGID_00000033351931473767984580000013026057754202479521_);}
	.st43{fill:url(#SVGID_00000068677731157346776370000013580344776880345266_);}
	.st44{clip-path:url(#SVGID_00000149348390286280342800000004035245429819441332_);}
	.st45{filter:url(#Adobe_OpacityMaskFilter_00000157270934812884311790000008753375736813092263_);}
	.st46{clip-path:url(#SVGID_00000094612938455481509190000005551771348096093326_);}
	.st47{clip-path:url(#SVGID_00000182497310689563966190000014123525779737550494_);}
	
		.st48{clip-path:url(#SVGID_00000039093455476188421490000001207090785058991745_);fill:url(#SVGID_00000150783042661831782600000001832277991595675302_);}
	
		.st49{clip-path:url(#SVGID_00000094612938455481509190000005551771348096093326_);mask:url(#SVGID_00000038385246941989799230000017611043821181868718_);fill:url(#SVGID_00000000944554857914537720000009941020709898373808_);}
	.st50{fill:url(#SVGID_00000078751491138416996730000001718887798147056030_);}
	.st51{fill:#565E5F;}
	.st52{fill:#060809;}
	.st53{fill:#2E3537;}
	.st54{fill:#141B1D;}
	.st55{fill:#BBC1C5;}
	.st56{fill:#3D58A7;}
	.st57{fill:#4579BC;}
	.st58{fill:#73CEDF;}
</style>
<g class="st0">
	
		<image style="overflow:visible;enable-background:new    ;" width="2275" height="1433" xlink:href="5B8317D64C6A2EC.png"  transform="matrix(0.2392 0 0 0.2392 35.9926 205.44)">
	</image>
</g>
<g>
	<path d="M487.1,354.5l-9.7-1l-11.8-40.3c0,0,18.1-3,21.5,4.9c3.4,8,4,14.8,3.8,19.2C490.6,341.8,489.4,349.5,487.1,354.5z"/>
	<path d="M295.7,459.6l-20-7.5l-11.2-30.2c0,0,25.8-8.5,31.1,5.9C300.9,442.2,295.7,459.6,295.7,459.6z"/>
	<g>
		<path class="st1" d="M478.4,319.4l-18.2-9.6c-4.7-2.4-11.1-1.8-18,2.2c-14.6,8.5-26.5,29-26.5,46c0,7.9,2.6,13.6,6.8,16.6
			l20.2,10.8c4.7,2.1,10.8,1.4,17.5-2.5c14.6-8.5,26.5-29,26.5-46C486.7,328.1,483.5,322.1,478.4,319.4z"/>
		<path class="st2" d="M486.7,336.9c0,16.9-11.9,37.5-26.5,46c-14.6,8.5-26.5,1.6-26.5-15.3s11.9-37.5,26.5-46
			C474.8,313.1,486.7,320,486.7,336.9z"/>
		<path class="st1" d="M485.6,337.8c0,15.9-11.2,35.3-25,43.2c-13.8,8-25,1.5-25-14.4s11.2-35.3,25-43.2
			C474.4,315.5,485.6,321.9,485.6,337.8z"/>
		<g>
			
				<linearGradient id="SVGID_1_" gradientUnits="userSpaceOnUse" x1="3610.719" y1="-2856.0325" x2="3610.719" y2="-2805.0449" gradientTransform="matrix(0.866 -0.5 0 -1 -2665.5825 -674.5273)">
				<stop  offset="0" style="stop-color:#F3F4F5"/>
				<stop  offset="1" style="stop-color:#979B9C"/>
			</linearGradient>
			<path class="st3" d="M482.9,340.5c0-13.7-9.6-19.3-21.5-12.4c-11.9,6.9-21.5,23.6-21.5,37.3c0,13.7,9.6,19.3,21.5,12.4
				S482.9,354.2,482.9,340.5z"/>
			<path class="st4" d="M481,341.5c0-12.6-8.8-17.7-19.7-11.4c-10.9,6.3-19.7,21.6-19.7,34.2c0,12.6,8.8,17.7,19.7,11.4
				C472.2,369.4,481,354.1,481,341.5z"/>
			
				<linearGradient id="SVGID_00000054970891252438000930000011351674799267490714_" gradientUnits="userSpaceOnUse" x1="3610.7073" y1="-2808.7991" x2="3610.7073" y2="-2858.7063" gradientTransform="matrix(0.866 -0.5 0 -1 -2665.5825 -674.5273)">
				<stop  offset="0" style="stop-color:#F3F4F5"/>
				<stop  offset="1" style="stop-color:#979B9C"/>
			</linearGradient>
			<path style="fill:url(#SVGID_00000054970891252438000930000011351674799267490714_);" d="M468.8,348.6l13.9-5.2
				c-0.1,1.1-0.2,2.1-0.5,3.2l-13.9,5.2l12.2,1.1c-0.4,1.1-0.8,2.2-1.3,3.3l-12.2-1.1l9.1,7.3c-0.6,1-1.3,2.1-2,3.1l-9.1-7.3
				l4.8,12.5c-0.8,0.9-1.6,1.7-2.4,2.4l-4.8-12.5V377c-0.4,0.3-0.9,0.5-1.3,0.8c-0.4,0.2-0.9,0.5-1.3,0.7v-16.3l-4.8,18.1
				c-0.8,0.2-1.6,0.3-2.4,0.4l4.8-18.1l-9.1,17.8c-0.7-0.2-1.4-0.5-2-0.8l9.1-17.8L443.3,377c-0.5-0.6-0.9-1.2-1.3-1.9l12.2-15.2
				l-13.9,10.9c-0.2-0.9-0.4-1.8-0.5-2.7l13.9-10.9l-13.9,5.2c0.1-1.1,0.2-2.1,0.5-3.2l13.9-5.2l-12.2-1.1c0.4-1.1,0.8-2.2,1.3-3.4
				l12.2,1.1l-9.1-7.3c0.6-1,1.3-2.1,2-3.1l9.1,7.3l-4.8-12.5c0.8-0.9,1.6-1.7,2.4-2.4l4.8,12.5v-16.3c0.4-0.3,0.9-0.5,1.3-0.8
				s0.9-0.5,1.3-0.7v16.3l4.8-18.1c0.8-0.2,1.7-0.3,2.4-0.4l-4.8,18.1l9.1-17.8c0.7,0.2,1.4,0.5,2,0.8L467,344l12.2-15.2
				c0.5,0.5,0.9,1.2,1.3,1.9l-12.2,15.2l13.9-10.9c0.2,0.9,0.4,1.8,0.5,2.7L468.8,348.6z"/>
			
				<linearGradient id="SVGID_00000011012965236031405320000008616110994520848263_" gradientUnits="userSpaceOnUse" x1="3610.719" y1="-2847.2373" x2="3610.719" y2="-2814.6426" gradientTransform="matrix(0.866 -0.5 0 -1 -2665.5825 -674.5273)">
				<stop  offset="0" style="stop-color:#F3F4F5"/>
				<stop  offset="1" style="stop-color:#979B9C"/>
			</linearGradient>
			<path style="fill:url(#SVGID_00000011012965236031405320000008616110994520848263_);" d="M475.1,340.6l-6.8,5.3l6-7.4
				c-0.4-0.7-0.8-1.3-1.3-1.9l-6,7.4l4.4-8.6c-0.6-0.4-1.3-0.6-2-0.8l-4.4,8.6l2.4-8.8c-0.8,0-1.6,0.1-2.4,0.4l-2.4,8.8v-7.9
				c-0.4,0.2-0.9,0.4-1.3,0.7s-0.9,0.5-1.3,0.8v7.9l-2.4-6.1c-0.9,0.8-1.7,1.6-2.4,2.4l2.4,6.1l-4.4-3.5c-0.7,1-1.4,2-2,3.1l4.4,3.5
				l-6-0.5c-0.5,1.1-0.9,2.2-1.3,3.4l6,0.5l-6.8,2.5c-0.2,1.1-0.4,2.2-0.5,3.2l6.8-2.5l-6.8,5.3c0.1,1,0.2,1.9,0.5,2.7l6.8-5.3
				l-6,7.4c0.4,0.7,0.8,1.3,1.3,1.9l6-7.4l-4.4,8.6c0.6,0.4,1.3,0.6,2,0.8l4.4-8.6l-2.4,8.8c0.8,0,1.6-0.1,2.4-0.4l2.4-8.8v7.9
				c0.4-0.2,0.9-0.4,1.3-0.7s0.9-0.5,1.3-0.8v-7.9l2.4,6.1c0.9-0.8,1.7-1.6,2.4-2.4l-2.4-6.1l4.4,3.5c0.7-1,1.4-2,2-3.1l-4.4-3.5
				l6,0.5c0.5-1.1,0.9-2.2,1.3-3.4l-6-0.5l6.8-2.5c0.2-1.1,0.4-2.2,0.5-3.2l-6.8,2.5l6.8-5.3C475.5,342.3,475.3,341.4,475.1,340.6z"
				/>
			<path class="st7" d="M473.6,345.8c0-7.9-5.5-11.1-12.4-7.1s-12.4,13.5-12.4,21.4c0,7.9,5.5,11.1,12.4,7.1
				S473.6,353.7,473.6,345.8z"/>
			
				<linearGradient id="SVGID_00000147199622862964349590000009975757670736482433_" gradientUnits="userSpaceOnUse" x1="3610.719" y1="-2821.2241" x2="3610.719" y2="-2845.6787" gradientTransform="matrix(0.866 -0.5 0 -1 -2665.5825 -674.5273)">
				<stop  offset="0" style="stop-color:#4E5E62"/>
				<stop  offset="1" style="stop-color:#2E3537"/>
			</linearGradient>
			<path style="fill:url(#SVGID_00000147199622862964349590000009975757670736482433_);" d="M471.6,347c0-6.5-4.6-9.2-10.3-5.9
				c-5.7,3.3-10.3,11.2-10.3,17.8c0,6.5,4.6,9.2,10.3,5.9C467,361.5,471.6,353.5,471.6,347z"/>
			
				<linearGradient id="SVGID_00000019650009942816886900000011431609103171690904_" gradientUnits="userSpaceOnUse" x1="3610.7131" y1="-2838.5676" x2="3610.7131" y2="-2825.9277" gradientTransform="matrix(0.866 -0.5 0 -1 -2665.5825 -674.5273)">
				<stop  offset="0" style="stop-color:#4E5E62"/>
				<stop  offset="1" style="stop-color:#2E3537"/>
			</linearGradient>
			<path style="fill:url(#SVGID_00000019650009942816886900000011431609103171690904_);" d="M466.8,349.8c0-3.5-2.5-4.9-5.5-3.2
				s-5.5,6-5.5,9.5c0,3.5,2.5,4.9,5.5,3.2C464.3,357.5,466.8,353.2,466.8,349.8z"/>
		</g>
	</g>
	<g>
		<path class="st1" d="M283.5,431.9l-18.2-9.6c-4.7-2.4-11.1-1.8-18.1,2.2c-14.6,8.5-26.5,29-26.5,46c0,7.9,2.6,13.6,6.8,16.6
			l20.2,10.8c4.7,2.1,10.8,1.4,17.5-2.5c14.6-8.5,26.5-29,26.5-46C291.8,440.6,288.6,434.5,283.5,431.9z"/>
		<path class="st2" d="M291.8,449.4c0,16.9-11.9,37.5-26.5,46c-14.6,8.5-26.5,1.6-26.5-15.3s11.9-37.5,26.5-46
			C279.9,425.6,291.8,432.5,291.8,449.4z"/>
		<path class="st1" d="M290.7,450.3c0,15.9-11.2,35.3-25,43.2c-13.8,8-24.9,1.5-24.9-14.4c0-15.9,11.2-35.3,24.9-43.2
			C279.5,427.9,290.7,434.4,290.7,450.3z"/>
		<g>
			
				<linearGradient id="SVGID_00000075153870537453780250000017075403701628200862_" gradientUnits="userSpaceOnUse" x1="3385.7073" y1="-2856.0129" x2="3385.7073" y2="-2805.0264" gradientTransform="matrix(0.866 -0.5 0 -1 -2665.5825 -674.5273)">
				<stop  offset="0" style="stop-color:#F3F4F5"/>
				<stop  offset="1" style="stop-color:#979B9C"/>
			</linearGradient>
			<path style="fill:url(#SVGID_00000075153870537453780250000017075403701628200862_);" d="M288,453c0-13.7-9.6-19.3-21.5-12.4
				c-11.9,6.9-21.6,23.6-21.6,37.3c0,13.7,9.6,19.3,21.6,12.4C278.3,483.4,288,466.7,288,453z"/>
			<path class="st4" d="M286.2,454c0-12.6-8.8-17.7-19.7-11.4c-10.9,6.3-19.7,21.6-19.7,34.2c0,12.6,8.8,17.7,19.7,11.4
				C277.3,481.9,286.2,466.6,286.2,454z"/>
			
				<linearGradient id="SVGID_00000052816441496429721930000002373787810767823524_" gradientUnits="userSpaceOnUse" x1="3385.7073" y1="-2808.7808" x2="3385.7073" y2="-2858.6868" gradientTransform="matrix(0.866 -0.5 0 -1 -2665.5825 -674.5273)">
				<stop  offset="0" style="stop-color:#F3F4F5"/>
				<stop  offset="1" style="stop-color:#979B9C"/>
			</linearGradient>
			<path style="fill:url(#SVGID_00000052816441496429721930000002373787810767823524_);" d="M273.9,461.1l13.9-5.2
				c-0.1,1.1-0.2,2.1-0.5,3.2l-13.9,5.2l12.2,1.1c-0.4,1.1-0.8,2.2-1.3,3.3l-12.2-1.1l9.1,7.3c-0.6,1-1.3,2.1-2,3.1l-9.1-7.3
				l4.8,12.5c-0.8,0.9-1.6,1.7-2.4,2.4l-4.8-12.5v16.3c-0.4,0.3-0.9,0.5-1.3,0.8c-0.4,0.2-0.9,0.5-1.3,0.7v-16.3l-4.8,18.1
				c-0.8,0.2-1.6,0.3-2.4,0.4l4.8-18.1l-9.1,17.8c-0.7-0.2-1.4-0.5-2-0.8l9.1-17.8l-12.2,15.2c-0.5-0.6-0.9-1.2-1.3-1.9l12.2-15.2
				l-13.9,10.9c-0.2-0.9-0.4-1.8-0.4-2.7l13.9-10.9l-13.9,5.2c0.1-1.1,0.2-2.1,0.4-3.2l13.9-5.2l-12.2-1.1c0.4-1.1,0.8-2.2,1.3-3.4
				l12.2,1.1l-9.1-7.3c0.6-1,1.3-2.1,2-3.1l9.1,7.3l-4.8-12.5c0.8-0.9,1.6-1.7,2.4-2.4l4.8,12.5v-16.3c0.4-0.3,0.9-0.5,1.3-0.8
				s0.9-0.5,1.3-0.7v16.3l4.8-18.1c0.8-0.2,1.7-0.3,2.5-0.4l-4.8,18.1l9.1-17.8c0.7,0.2,1.4,0.5,2,0.8l-9.1,17.8l12.2-15.2
				c0.5,0.5,0.9,1.2,1.3,1.9l-12.2,15.2l13.9-10.9c0.2,0.9,0.4,1.8,0.5,2.7L273.9,461.1z"/>
			
				<linearGradient id="SVGID_00000075124466769820842600000003720268751315973027_" gradientUnits="userSpaceOnUse" x1="3385.7073" y1="-2847.2188" x2="3385.7073" y2="-2814.624" gradientTransform="matrix(0.866 -0.5 0 -1 -2665.5825 -674.5273)">
				<stop  offset="0" style="stop-color:#F3F4F5"/>
				<stop  offset="1" style="stop-color:#979B9C"/>
			</linearGradient>
			<path style="fill:url(#SVGID_00000075124466769820842600000003720268751315973027_);" d="M280.2,453.1l-6.8,5.3l6-7.4
				c-0.4-0.7-0.8-1.3-1.3-1.9l-6,7.4l4.4-8.6c-0.6-0.4-1.3-0.6-2-0.8l-4.4,8.6l2.4-8.8c-0.8,0-1.6,0.1-2.4,0.4l-2.4,8.8v-7.9
				c-0.4,0.2-0.9,0.4-1.3,0.7s-0.9,0.5-1.3,0.8v7.9l-2.4-6.1c-0.9,0.8-1.7,1.6-2.4,2.4l2.4,6.1l-4.4-3.5c-0.7,1-1.4,2-2,3.1l4.4,3.5
				l-5.9-0.5c-0.5,1.1-0.9,2.2-1.3,3.4l6,0.5l-6.8,2.5c-0.2,1.1-0.4,2.2-0.4,3.2l6.8-2.5l-6.8,5.3c0.1,1,0.2,1.9,0.4,2.7l6.8-5.3
				l-5.9,7.4c0.4,0.7,0.8,1.3,1.3,1.9l6-7.4l-4.4,8.6c0.6,0.4,1.3,0.6,2,0.8l4.4-8.6l-2.4,8.8c0.8,0,1.6-0.1,2.4-0.4l2.4-8.8v7.9
				c0.4-0.2,0.9-0.4,1.3-0.7s0.9-0.5,1.3-0.8v-7.9l2.4,6.1c0.9-0.8,1.7-1.6,2.4-2.4l-2.4-6.1l4.4,3.5c0.7-1,1.4-2,2-3.1l-4.4-3.5
				l6,0.5c0.5-1.1,0.9-2.2,1.3-3.4l-6-0.5l6.8-2.5c0.2-1.1,0.4-2.2,0.5-3.2l-6.8,2.5l6.8-5.3C280.6,454.8,280.5,453.9,280.2,453.1z"
				/>
			<path class="st7" d="M278.8,458.3c0-7.9-5.5-11.1-12.4-7.1s-12.4,13.5-12.4,21.4c0,7.9,5.5,11.1,12.4,7.1
				C273.3,475.7,278.8,466.1,278.8,458.3z"/>
			
				<linearGradient id="SVGID_00000139288684533422734070000001540027908818426525_" gradientUnits="userSpaceOnUse" x1="3385.7073" y1="-2821.2056" x2="3385.7073" y2="-2845.6587" gradientTransform="matrix(0.866 -0.5 0 -1 -2665.5825 -674.5273)">
				<stop  offset="0" style="stop-color:#4E5E62"/>
				<stop  offset="1" style="stop-color:#2E3537"/>
			</linearGradient>
			<path style="fill:url(#SVGID_00000139288684533422734070000001540027908818426525_);" d="M276.7,459.5c0-6.5-4.6-9.2-10.3-5.9
				c-5.7,3.3-10.3,11.2-10.3,17.8c0,6.5,4.6,9.2,10.3,5.9C272.1,474,276.7,466,276.7,459.5z"/>
			
				<linearGradient id="SVGID_00000165225437311047035260000002881990246557990582_" gradientUnits="userSpaceOnUse" x1="3385.7073" y1="-2838.5491" x2="3385.7073" y2="-2825.9092" gradientTransform="matrix(0.866 -0.5 0 -1 -2665.5825 -674.5273)">
				<stop  offset="0" style="stop-color:#4E5E62"/>
				<stop  offset="1" style="stop-color:#2E3537"/>
			</linearGradient>
			<path style="fill:url(#SVGID_00000165225437311047035260000002881990246557990582_);" d="M271.9,462.2c0-3.5-2.5-4.9-5.5-3.2
				s-5.5,6-5.5,9.5c0,3.5,2.5,4.9,5.5,3.2C269.5,470,271.9,465.7,271.9,462.2z"/>
		</g>
	</g>
	
		<linearGradient id="SVGID_00000067922673644144343820000002579986882776414385_" gradientUnits="userSpaceOnUse" x1="2389.6917" y1="211.9831" x2="2431.2949" y2="211.9831" gradientTransform="matrix(1 0 0 -1 -2319.5149 616)">
		<stop  offset="0" style="stop-color:#425054"/>
		<stop  offset="1" style="stop-color:#2E3537"/>
	</linearGradient>
	<path style="fill:url(#SVGID_00000067922673644144343820000002579986882776414385_);" d="M71.2,389.2c0,0-6,14.6,11.8,24.8
		c17.7,10.2,28.9,1.1,28.9,1.1L71.2,389.2z"/>
	<path class="st16" d="M234.1,480.7c1.4-19,14.6-40.8,30.7-50.1s29.3-2.7,30.7,14.6L429,368.2c1.5-19,14.7-40.8,30.7-50.1
		c10.8-6.2,20.3-5.3,25.8,1.2V189.6c0-35.6-5.3-42.8-11.9-47.9l0,0c-0.7-0.5-1.4-1.1-2.1-1.5L350.4,70.4c-3.6-2.1-7.8-3.1-12.5-2.7
		c0,0-0.1,0-0.1,0c0,0-0.1,0-0.1,0c-0.3,0-0.7,0.1-1,0.1c-4.8,0.4-17.1,0.8-39.2,13.4L106.9,191.3c-14.2,8.2-39.1,29.1-39.1,69.4
		v115c0,7.2,2.6,23.1,12.1,28.8c0,0,0,0,0,0c0.8,0.6,1.7,1.2,2.6,1.7l120.9,69.7c6.9,3.9,16.3,3.5,26.7-2v9.2L234.1,480.7z"/>
	<path class="st16" d="M242.9,96.2c-0.7-0.6-1.7-0.6-2.8,0l-88.7,51.2c-2,1.1-3.6,3.9-3.6,6.2v14.1l6.5-3.8
		c4.8-2.2,11.6-4.2,18.6-2.4l90.7-53L242.9,96.2z"/>
	<path class="st17" d="M485.5,189.6c0-16.4-11.5-23.1-25.8-14.9l-54,31.2v-14.1c0-2.3-1.6-3.2-3.6-2.1L313.4,241
		c-2,1.1-3.6,3.9-3.6,6.2v14l-54.1,31.2c-14.2,8.2-25.8,28.2-25.8,44.6v136.7v9.2l4.1-2.3c1.4-19,14.6-40.8,30.7-50.1
		s29.3-2.7,30.7,14.6L429,368.2c1.5-19,14.7-40.8,30.7-50.1c10.8-6.2,20.3-5.3,25.8,1.2L485.5,189.6z"/>
	
		<linearGradient id="SVGID_00000053524536314822432020000002625704413396221589_" gradientUnits="userSpaceOnUse" x1="2645.8025" y1="367.653" x2="2642.0205" y2="361.0349" gradientTransform="matrix(1 0 0 -1 -2319.5149 616)">
		<stop  offset="0" style="stop-color:#FFFFFF"/>
		<stop  offset="1" style="stop-color:#010101"/>
	</linearGradient>
	<path style="opacity:0.15;fill:url(#SVGID_00000053524536314822432020000002625704413396221589_);enable-background:new    ;" d="
		M404.6,189.6l-20.8-11.9l-0.1,0.1c-0.6-0.2-1.4-0.1-2.2,0.4l-88.7,51.2c-0.2,0.1-0.3,0.2-0.5,0.4c15.9,15.1,17.5,31.6,17.5,31.6
		v-14.1c0-2.3,1.6-5.1,3.6-6.2l54.4-31.4l-0.1,0l0.1-0.1l0.1,0l34.1-19.7C403.1,189.3,403.9,189.2,404.6,189.6L404.6,189.6z"/>
	<polygon class="st19" points="367.8,209.6 368,209.5 367.9,209.6 367.8,209.6 	"/>
	<path class="st19" d="M473.6,141.7L473.6,141.7c-0.3-0.2-0.5-0.4-0.8-0.6c-0.2-0.1-0.4-0.3-0.6-0.4c-0.2-0.1-0.3-0.2-0.5-0.3
		c-7.4-4.6-17.8-4.1-29.2,2.6l-60.9,35.2c0.8-0.5,1.6-0.6,2.2-0.4l0.1-0.1l20.8,11.9l0,0c0.7,0.4,1.1,1.2,1.1,2.4V206l-95.9,55.3
		c0,0-1.6-16.5-17.5-31.6c0.2-0.1,0.3-0.2,0.5-0.4l-60.9,35.2c-22.5,13-40.7,44.6-40.7,70.5v114.3c0,8.5,2,15.4,5.4,20.3
		c0.5,0.7,1.1,1.9,1.8,3.3l4.9,2.8c6.9,3.9,16.3,3.5,26.7-2V337.1c0-16.4,11.5-36.4,25.8-44.6l204-117.8
		c14.2-8.2,25.8-1.6,25.8,14.9C485.5,154,480.2,146.8,473.6,141.7z"/>
	<path class="st19" d="M154.3,163.9l-6.5,3.8v-0.1l-40.9,23.6c-14.2,8.2-39.1,29.1-39.1,69.4v115c0,7.2,2.6,23.1,12.1,28.8
		c0,0,0,0,0,0c-6.1-4.7-9.7-13.2-9.7-24.9V265.2c0-26,18.2-57.6,40.7-70.5l58.4-33.7C163.6,160.5,158.3,162.1,154.3,163.9z"/>
	<path class="st19" d="M297.5,81.2l-40.6,23.4l4.9,2.9l59.6-34.4c5.4-3.1,10.5-4.9,15.3-5.4C331.9,68.2,319.6,68.6,297.5,81.2z"/>
	
		<linearGradient id="SVGID_00000013909115241065761250000008677208350703251093_" gradientUnits="userSpaceOnUse" x1="2502.8674" y1="448.9043" x2="2499.3562" y2="443.1097" gradientTransform="matrix(1 0 0 -1 -2319.5149 616)">
		<stop  offset="0" style="stop-color:#FFFFFF"/>
		<stop  offset="1" style="stop-color:#010101"/>
	</linearGradient>
	<path style="opacity:0.15;fill:url(#SVGID_00000013909115241065761250000008677208350703251093_);enable-background:new    ;" d="
		M242.9,96.2c-0.7-0.6-1.7-0.6-2.8,0l-88.7,51.2c-2,1.1-3.6,3.9-3.6,6.2v14.1l6.5-3.8c4.8-2.2,11.6-4.2,18.6-2.4l90.7-53L242.9,96.2
		z"/>
	<path class="st16" d="M483.7,190.7c0-15.3-10.8-21.5-24-13.8l-204,117.7c-13.2,7.6-24,26.3-24,41.5v145.8l2.3-1.3
		c1.5-18.9,14.7-40.7,30.7-49.9s29.2-2.7,30.7,14.5l0.1,14.5l124.2-71.7v-14.6l9.1-5.3c1.5-18.9,14.7-40.7,30.7-49.9
		c9.7-5.6,18.3-5.4,24-0.6L483.7,190.7z"/>
	<path class="st21" d="M296.6,277.2l-40.8,23.6c-10.2,5.9-18.6,20.4-18.6,32.2v77.3c0,2.9,2,4.1,4.5,2.6l54.9-31.7
		c2.5-1.5,4.5-5,4.5-7.9v-93.5C301.2,277,299.1,275.8,296.6,277.2z"/>
	<path class="st21" d="M418.9,206.6l40.8-23.6c10.2-5.9,18.6-1.1,18.6,10.7v77.3c0,2.9-2,6.4-4.5,7.9l-54.9,31.7
		c-2.5,1.5-4.5,0.3-4.5-2.6v-93.5C414.4,211.6,416.4,208.1,418.9,206.6z"/>
	
		<linearGradient id="SVGID_00000178181536615163495000000014947328338754061992_" gradientUnits="userSpaceOnUse" x1="2792.1021" y1="299.3965" x2="2752.6301" y2="218.1512" gradientTransform="matrix(1 0 0 -1 -2319.5149 616)">
		<stop  offset="0" style="stop-color:#425054"/>
		<stop  offset="1" style="stop-color:#2E3537"/>
	</linearGradient>
	<path style="fill:url(#SVGID_00000178181536615163495000000014947328338754061992_);" d="M490,323.3c-3.1-17.1-17.5-23.2-34.8-13.2
		c-19.5,11.3-35.4,38.7-35.4,61.2v16.6l9,0.2v-16.6c0-19.7,13.8-43.6,30.9-53.5c17-9.8,30.9-1.9,30.9,17.8c0,6-1.3,12.4-3.5,18.6
		C487.1,354.5,493.6,342.2,490,323.3z"/>
	
		<linearGradient id="SVGID_00000065790744928050263620000016779081245023076762_" gradientUnits="userSpaceOnUse" x1="2591.7981" y1="200.2142" x2="2542.1746" y2="119.1778" gradientTransform="matrix(1 0 0 -1 -2319.5149 616)">
		<stop  offset="0" style="stop-color:#425054"/>
		<stop  offset="1" style="stop-color:#2E3537"/>
	</linearGradient>
	<path style="fill:url(#SVGID_00000065790744928050263620000016779081245023076762_);" d="M260.3,422.6c-8.5,4.9-16.4,13-22.5,22.3
		c-5.6,9.1-19.6,26.3-33.1,31.5l-1.4-0.7l-6.7-3.9c19.8,26.7,40.9,26.7,40.9,26.7c-2.2-3.6-3.5-8.5-3.5-14.5
		c0-19.7,13.8-43.6,30.9-53.5c16.1-9.3,29.3-2.7,30.7,14.6l0,0C294.3,419.8,279,411.9,260.3,422.6z"/>
	
		<linearGradient id="SVGID_00000179610830261532443610000004040284046318104454_" gradientUnits="userSpaceOnUse" x1="2548.0945" y1="354.3888" x2="2506.7605" y2="283.9418" gradientTransform="matrix(1 0 0 -1 -2319.5149 616)">
		<stop  offset="0" style="stop-color:#424E53"/>
		<stop  offset="1" style="stop-color:#2E3537"/>
	</linearGradient>
	<path style="fill:url(#SVGID_00000179610830261532443610000004040284046318104454_);" d="M186.9,446.9V332.5
		c0-26,18.2-57.5,40.7-70.5l210.5-121.5c11.2-6.5,21.4-7.1,28.7-2.9L352.1,71.4c-7.4-4.4-17.6-3.8-29,2.8L112.7,195.7
		c-22.5,13-40.7,44.6-40.7,70.5v114.3c0,13.2,4.7,22.4,12.3,26.6l114.6,66.1C191.5,468.9,186.9,459.8,186.9,446.9z"/>
	<path class="st25" d="M93.2,219.8c-10.6,14.6-17.5,32.7-17.5,48.7v64.3c0,26.8,8.2,54.7,53.2,78.3c34.1,17.9,51.7,2.8,52-15.4
		l0.4-66.3c0-16,6.9-34,17.4-48.6L93.2,219.8z"/>
	<path class="st21" d="M84.5,348.2l87.8,50.7c6,3.8,6.6-3.3,6.6-3.3l0.4-66.3c0-15.1,6.1-32.9,16.5-48l-102-58.9
		c-10,14.5-16,31.5-16,45.9v64.3C77.8,332.7,77.1,343.9,84.5,348.2z"/>
	
		<linearGradient id="SVGID_00000106135618664438208560000016951147130342166175_" gradientUnits="userSpaceOnUse" x1="2483.7285" y1="357.2869" x2="2460.4946" y2="315.3028" gradientTransform="matrix(1 0 0 -1 -2319.5149 616)">
		<stop  offset="0" style="stop-color:#FFFFFF"/>
		<stop  offset="1" style="stop-color:#010101"/>
	</linearGradient>
	<path style="opacity:0.4;fill:url(#SVGID_00000106135618664438208560000016951147130342166175_);enable-background:new    ;" d="
		M84.5,348.2l87.8,50.7c6,3.8,6.6-3.3,6.6-3.3l0.4-66.3c0-15.1,6.1-32.9,16.5-48l-102-58.9c-10,14.5-16,31.5-16,45.9v64.3
		C77.8,332.7,77.1,343.9,84.5,348.2z"/>
	<path class="st27" d="M459.8,183.1l-40.8,23.6c-2.5,1.4-4.5,5-4.5,7.9v12.6l51.4,29.7c3.9,2.2,6.9,0.8,6.9-4.2v-70.9
		C469.3,179.8,464.8,180.1,459.8,183.1z"/>
	<path class="st28" d="M80.9,248.9v67c0,2.9,2,4.1,4.6,2.6l54.9-31.7c2.5-1.5,4.6-5,4.6-7.9V252l-51.1-29.5
		C88,230.8,83.6,239.9,80.9,248.9z"/>
	<path class="st28" d="M162.4,319.4l20.4-11.8c2.6-8.1,6.4-16.2,11.2-23.8v-3.4l-31.7-18.3V319.4z"/>
	<path class="st29" d="M301.2,279.9c0-2.9-2-4.1-4.5-2.6l-40.8,23.6c-10.2,5.9-18.6,20.4-18.6,32.2v20l63.9-36.9V279.9z"/>
	<path class="st29" d="M478.3,193.8c0-11.8-8.3-16.6-18.6-10.7l-40.8,23.6c-2.5,1.4-4.5,5-4.5,7.9v36.1l64-36.9L478.3,193.8
		L478.3,193.8z"/>
	<path class="st30" d="M93.2,219.8c-10.6,14.6-17.5,32.7-17.5,48.7v64.3c0,19.5,4.3,39.6,24.1,58.2c7.5-34.3,24.7-99.2,54.1-136.1
		L93.2,219.8z"/>
	<polygon class="st31" points="481,298.9 475.2,302.3 475.2,299.5 481,296.2 	"/>
	<polygon class="st31" points="240.1,437.4 234.3,440.7 234.3,438 240.1,434.6 	"/>
	
		<linearGradient id="SVGID_00000168086994998975891540000015415996510813454993_" gradientUnits="userSpaceOnUse" x1="2637.4062" y1="466.6738" x2="2708.5356" y2="329.4464" gradientTransform="matrix(1 0 0 -1 -2319.5149 616)">
		<stop  offset="0" style="stop-color:#566063"/>
		<stop  offset="1" style="stop-color:#222B2E"/>
	</linearGradient>
	<path style="fill:url(#SVGID_00000168086994998975891540000015415996510813454993_);" d="M310.7,260.8v-14.1c0-1.7,1.2-3.8,2.7-4.7
		l88.7-51.2c1.5-0.9,2.7-0.2,2.7,1.6v14.1L310.7,260.8z"/>
	<polygon class="st33" points="390.4,212.2 325.8,249.4 325.8,238.1 390.4,200.8 	"/>
	<g>
		<path class="st34" d="M178.4,441c0,3.7-2.6,5.3-5.9,3.4c-3.2-1.9-5.9-6.4-5.9-10.2s2.6-5.3,5.9-3.4
			C175.7,432.7,178.4,437.2,178.4,441z"/>
		
			<linearGradient id="SVGID_00000018229787185903055410000010496107740108463241_" gradientUnits="userSpaceOnUse" x1="2488.6682" y1="185.3365" x2="2495.0945" y2="172.0819" gradientTransform="matrix(1 0 0 -1 -2319.5149 616)">
			<stop  offset="0" style="stop-color:#AFB2B2"/>
			<stop  offset="0.4963" style="stop-color:#E7ECEB"/>
			<stop  offset="1" style="stop-color:#C6C9CB"/>
		</linearGradient>
		<path style="fill:url(#SVGID_00000018229787185903055410000010496107740108463241_);" d="M177.1,440.2c0,2.9-2.1,4.1-4.6,2.7
			c-2.5-1.5-4.6-5-4.6-8s2.1-4.1,4.6-2.7C175,433.7,177.1,437.3,177.1,440.2z"/>
		<g>
			<g>
				<defs>
					<polygon id="SVGID_00000145774467564185491610000017282620200868649627_" points="1,1 2,1 1,2 					"/>
				</defs>
				<defs>
					<polygon id="SVGID_00000061445866629709767160000007249991416473303947_" points="-1,-1 -2,-1 -1,-2 					"/>
				</defs>
				<clipPath id="SVGID_00000126325207653905485350000002499257121572700847_">
					<use xlink:href="#SVGID_00000145774467564185491610000017282620200868649627_"  style="overflow:visible;"/>
				</clipPath>
				
					<clipPath id="SVGID_00000026134207110147417620000005870215412884992949_" style="clip-path:url(#SVGID_00000126325207653905485350000002499257121572700847_);">
					<use xlink:href="#SVGID_00000061445866629709767160000007249991416473303947_"  style="overflow:visible;"/>
				</clipPath>
				<defs>
					<filter id="Adobe_OpacityMaskFilter" filterUnits="userSpaceOnUse" x="166.6" y="430" width="11.7" height="15.2">
						<feColorMatrix  type="matrix" values="1 0 0 0 0  0 1 0 0 0  0 0 1 0 0  0 0 0 1 0"/>
					</filter>
				</defs>
				
					<mask maskUnits="userSpaceOnUse" x="166.6" y="430" width="11.7" height="15.2" id="SVGID_00000139255857135169267240000010319013512536903843_">
					<g class="st37">
						<g>
							<defs>
								<polygon id="SVGID_00000111192738560860470190000002093062289827604647_" points="1,1 2,1 1,2 								"/>
							</defs>
							<defs>
								<polygon id="SVGID_00000183949589691472947600000006666513716675002011_" points="-1,-1 -2,-1 -1,-2 								"/>
							</defs>
							
								<clipPath id="SVGID_00000177441965690426995970000003331296959177590672_" style="clip-path:url(#SVGID_00000026134207110147417620000005870215412884992949_);">
								<use xlink:href="#SVGID_00000111192738560860470190000002093062289827604647_"  style="overflow:visible;"/>
							</clipPath>
							
								<clipPath id="SVGID_00000008147630580786751080000006675475811321743291_" style="clip-path:url(#SVGID_00000177441965690426995970000003331296959177590672_);">
								<use xlink:href="#SVGID_00000183949589691472947600000006666513716675002011_"  style="overflow:visible;"/>
							</clipPath>
							
								<linearGradient id="SVGID_00000061442876462595389330000003385570114756746114_" gradientUnits="userSpaceOnUse" x1="2488.6804" y1="185.0038" x2="2495.832" y2="170.8795" gradientTransform="matrix(1 0 0 -1 -2319.5149 616)">
								<stop  offset="0" style="stop-color:#A1A1A1"/>
								<stop  offset="0.3137" style="stop-color:#FFFFFF"/>
								<stop  offset="0.3724" style="stop-color:#F5F5F5"/>
								<stop  offset="0.4737" style="stop-color:#D9D9D9"/>
								<stop  offset="0.6055" style="stop-color:#ABABAB"/>
								<stop  offset="0.7627" style="stop-color:#6C6C6C"/>
								<stop  offset="0.9394" style="stop-color:#1D1D1D"/>
								<stop  offset="1" style="stop-color:#000000"/>
							</linearGradient>
							
								<path style="clip-path:url(#SVGID_00000008147630580786751080000006675475811321743291_);fill:url(#SVGID_00000061442876462595389330000003385570114756746114_);" d="
								M178.4,441c0,3.7-2.6,5.3-5.9,3.4c-3.2-1.9-5.9-6.4-5.9-10.2s2.6-5.3,5.9-3.4C175.7,432.7,178.4,437.2,178.4,441z"/>
						</g>
					</g>
				</mask>
				
					<linearGradient id="SVGID_00000160166143289354861220000015455016219025096327_" gradientUnits="userSpaceOnUse" x1="2488.6804" y1="185.0038" x2="2495.832" y2="170.8795" gradientTransform="matrix(1 0 0 -1 -2319.5149 616)">
					<stop  offset="0" style="stop-color:#A1A1A1"/>
					<stop  offset="0.3137" style="stop-color:#FFFFFF"/>
					<stop  offset="0.3724" style="stop-color:#F5F5F5"/>
					<stop  offset="0.4737" style="stop-color:#D9D9D9"/>
					<stop  offset="0.6055" style="stop-color:#ABABAB"/>
					<stop  offset="0.7627" style="stop-color:#6C6C6C"/>
					<stop  offset="0.9394" style="stop-color:#1D1D1D"/>
					<stop  offset="1" style="stop-color:#000000"/>
				</linearGradient>
				
					<path style="clip-path:url(#SVGID_00000026134207110147417620000005870215412884992949_);mask:url(#SVGID_00000139255857135169267240000010319013512536903843_);fill:url(#SVGID_00000160166143289354861220000015455016219025096327_);" d="
					M178.4,441c0,3.7-2.6,5.3-5.9,3.4c-3.2-1.9-5.9-6.4-5.9-10.2s2.6-5.3,5.9-3.4C175.7,432.7,178.4,437.2,178.4,441z"/>
			</g>
		</g>
		
			<linearGradient id="SVGID_00000033328650119170958580000001189481610975882134_" gradientUnits="userSpaceOnUse" x1="2488.6804" y1="185.0038" x2="2495.832" y2="170.8795" gradientTransform="matrix(1 0 0 -1 -2319.5149 616)">
			<stop  offset="0" style="stop-color:#FFFFFF"/>
			<stop  offset="0.3137" style="stop-color:#FFFFFF"/>
			<stop  offset="1" style="stop-color:#FFFFFF"/>
		</linearGradient>
		<path style="fill:url(#SVGID_00000033328650119170958580000001189481610975882134_);" d="M178.4,441c0,3.7-2.6,5.3-5.9,3.4
			c-3.2-1.9-5.9-6.4-5.9-10.2s2.6-5.3,5.9-3.4C175.7,432.7,178.4,437.2,178.4,441z"/>
	</g>
	<g>
		<path class="st34" d="M88.8,390.7c0,3.4-2.4,4.8-5.3,3.1s-5.3-5.8-5.3-9.2s2.4-4.8,5.3-3.1C86.4,383.2,88.8,387.3,88.8,390.7z"/>
		
			<linearGradient id="SVGID_00000111176866721351267420000001628606271824007299_" gradientUnits="userSpaceOnUse" x1="2399.9724" y1="234.6138" x2="2405.7778" y2="222.6398" gradientTransform="matrix(1 0 0 -1 -2319.5149 616)">
			<stop  offset="0" style="stop-color:#AFB2B2"/>
			<stop  offset="0.4963" style="stop-color:#E7ECEB"/>
			<stop  offset="1" style="stop-color:#C6C9CB"/>
		</linearGradient>
		<path style="fill:url(#SVGID_00000111176866721351267420000001628606271824007299_);" d="M87.6,390c0,2.6-1.9,3.7-4.2,2.4
			c-2.3-1.3-4.2-4.5-4.2-7.2s1.9-3.7,4.2-2.4C85.8,384.1,87.6,387.4,87.6,390z"/>
		<g>
			<g>
				<defs>
					<polygon id="SVGID_00000027591237309526404530000000412924599793067947_" points="1,1 2,1 1,2 					"/>
				</defs>
				<defs>
					<polygon id="SVGID_00000157988607129668752920000001728083040671695787_" points="-1,-1 -2,-1 -1,-2 					"/>
				</defs>
				<clipPath id="SVGID_00000012462969822739890400000017208482027524113051_">
					<use xlink:href="#SVGID_00000027591237309526404530000000412924599793067947_"  style="overflow:visible;"/>
				</clipPath>
				
					<clipPath id="SVGID_00000147207234296042565090000006116729799871293350_" style="clip-path:url(#SVGID_00000012462969822739890400000017208482027524113051_);">
					<use xlink:href="#SVGID_00000157988607129668752920000001728083040671695787_"  style="overflow:visible;"/>
				</clipPath>
				<defs>
					
						<filter id="Adobe_OpacityMaskFilter_00000024719925529097980500000012314685616919142295_" filterUnits="userSpaceOnUse" x="78.2" y="380.8" width="10.6" height="13.7">
						<feColorMatrix  type="matrix" values="1 0 0 0 0  0 1 0 0 0  0 0 1 0 0  0 0 0 1 0"/>
					</filter>
				</defs>
				
					<mask maskUnits="userSpaceOnUse" x="78.2" y="380.8" width="10.6" height="13.7" id="SVGID_00000147926682477034572910000007824899579999909030_">
					<g style="filter:url(#Adobe_OpacityMaskFilter_00000024719925529097980500000012314685616919142295_);">
						<g>
							<defs>
								<polygon id="SVGID_00000050642898851443505490000011070277110161990078_" points="1,1 2,1 1,2 								"/>
							</defs>
							<defs>
								<polygon id="SVGID_00000069379048040693967380000004903858528933968518_" points="-1,-1 -2,-1 -1,-2 								"/>
							</defs>
							
								<clipPath id="SVGID_00000154391246897407924610000002694489311580904604_" style="clip-path:url(#SVGID_00000147207234296042565090000006116729799871293350_);">
								<use xlink:href="#SVGID_00000050642898851443505490000011070277110161990078_"  style="overflow:visible;"/>
							</clipPath>
							
								<clipPath id="SVGID_00000118371058625849703770000006353950153419535757_" style="clip-path:url(#SVGID_00000154391246897407924610000002694489311580904604_);">
								<use xlink:href="#SVGID_00000069379048040693967380000004903858528933968518_"  style="overflow:visible;"/>
							</clipPath>
							
								<linearGradient id="SVGID_00000018223740264793735630000007228336162020147339_" gradientUnits="userSpaceOnUse" x1="2399.988" y1="234.3153" x2="2406.4485" y2="221.5558" gradientTransform="matrix(1 0 0 -1 -2319.5149 616)">
								<stop  offset="0" style="stop-color:#A1A1A1"/>
								<stop  offset="0.3137" style="stop-color:#FFFFFF"/>
								<stop  offset="0.3724" style="stop-color:#F5F5F5"/>
								<stop  offset="0.4737" style="stop-color:#D9D9D9"/>
								<stop  offset="0.6055" style="stop-color:#ABABAB"/>
								<stop  offset="0.7627" style="stop-color:#6C6C6C"/>
								<stop  offset="0.9394" style="stop-color:#1D1D1D"/>
								<stop  offset="1" style="stop-color:#000000"/>
							</linearGradient>
							
								<path style="clip-path:url(#SVGID_00000118371058625849703770000006353950153419535757_);fill:url(#SVGID_00000018223740264793735630000007228336162020147339_);" d="
								M88.8,390.7c0,3.4-2.4,4.8-5.3,3.1s-5.3-5.8-5.3-9.2s2.4-4.8,5.3-3.1C86.4,383.2,88.8,387.3,88.8,390.7z"/>
						</g>
					</g>
				</mask>
				
					<linearGradient id="SVGID_00000096040631061066032370000001957537727463213750_" gradientUnits="userSpaceOnUse" x1="2399.988" y1="234.3153" x2="2406.4485" y2="221.5558" gradientTransform="matrix(1 0 0 -1 -2319.5149 616)">
					<stop  offset="0" style="stop-color:#A1A1A1"/>
					<stop  offset="0.3137" style="stop-color:#FFFFFF"/>
					<stop  offset="0.3724" style="stop-color:#F5F5F5"/>
					<stop  offset="0.4737" style="stop-color:#D9D9D9"/>
					<stop  offset="0.6055" style="stop-color:#ABABAB"/>
					<stop  offset="0.7627" style="stop-color:#6C6C6C"/>
					<stop  offset="0.9394" style="stop-color:#1D1D1D"/>
					<stop  offset="1" style="stop-color:#000000"/>
				</linearGradient>
				
					<path style="clip-path:url(#SVGID_00000147207234296042565090000006116729799871293350_);mask:url(#SVGID_00000147926682477034572910000007824899579999909030_);fill:url(#SVGID_00000096040631061066032370000001957537727463213750_);" d="
					M88.8,390.7c0,3.4-2.4,4.8-5.3,3.1s-5.3-5.8-5.3-9.2s2.4-4.8,5.3-3.1C86.4,383.2,88.8,387.3,88.8,390.7z"/>
			</g>
		</g>
		
			<linearGradient id="SVGID_00000119822241177418733040000018091727084036943498_" gradientUnits="userSpaceOnUse" x1="2399.988" y1="234.3153" x2="2406.4485" y2="221.5558" gradientTransform="matrix(1 0 0 -1 -2319.5149 616)">
			<stop  offset="0" style="stop-color:#FFFFFF"/>
			<stop  offset="0.3137" style="stop-color:#FFFFFF"/>
			<stop  offset="1" style="stop-color:#FFFFFF"/>
		</linearGradient>
		<path style="fill:url(#SVGID_00000119822241177418733040000018091727084036943498_);" d="M88.8,390.7c0,3.4-2.4,4.8-5.3,3.1
			s-5.3-5.8-5.3-9.2s2.4-4.8,5.3-3.1C86.4,383.2,88.8,387.3,88.8,390.7z"/>
	</g>
	<path class="st21" d="M401.1,341.3l-86.8,50.1c-2.5,1.5-4.5,5-4.5,7.9v25.2c0,2.9,2,4.1,4.5,2.6l86.8-50.1c2.5-1.5,4.5-5,4.5-7.9
		V344C405.7,341.1,403.7,339.9,401.1,341.3z"/>
	<path class="st21" d="M401.1,216.9L314.4,267c-2.5,1.5-4.5,5-4.5,7.9v81.6c0,2.9,2,4.1,4.5,2.6l86.8-50.1c2.5-1.5,4.5-5,4.5-7.9
		v-81.6C405.7,216.6,403.7,215.4,401.1,216.9z"/>
	<path class="st29" d="M405.7,219.5c0-2.9-2-4.1-4.5-2.6L314.4,267c-2.5,1.5-4.5,5-4.5,7.9v36.6l95.9-55.3V219.5z"/>
	<polygon class="st51" points="407.1,208.6 359.2,236.3 357.9,235.6 405.8,207.9 	"/>
	<polygon class="st25" points="407.1,382.2 359.2,409.9 359.2,236.3 407.1,208.6 	"/>
	<polygon class="st52" points="357.9,235.6 357.9,409.2 359.2,409.9 359.2,236.3 	"/>
	<polygon class="st53" points="402.8,379.8 365,401.6 365,239.2 402.8,217.4 	"/>
	<polygon class="st21" points="399.8,368.5 368.1,386.8 368.1,246.5 399.8,228.2 	"/>
	<polygon class="st54" points="402.8,373.6 364.7,395.6 364.7,401.8 402.8,379.8 	"/>
	<polygon class="st55" points="368.7,399.5 376,395.3 376,391.7 368.7,395.9 	"/>
	<polygon class="st51" points="359,236.4 311.1,264.1 309.8,263.4 357.8,235.7 	"/>
	<polygon class="st25" points="359,410 311.1,437.7 311.1,264.1 359,236.4 	"/>
	<polygon class="st52" points="309.8,263.3 309.8,437 311.1,437.7 311.1,264.1 	"/>
	<polygon class="st53" points="354.7,407.6 316.9,429.4 316.9,267 354.7,245.1 	"/>
	<polygon class="st21" points="351.7,396.3 320,414.6 320,274.2 351.7,255.9 	"/>
	<polygon class="st54" points="354.7,401.4 316.6,423.4 316.6,429.6 354.7,407.6 	"/>
	<polygon class="st55" points="349.4,410.7 342.1,414.9 342.1,411.3 349.4,407.1 	"/>
	<path class="st56" d="M186.9,446.9V332.5c0-26,18.2-57.5,40.7-70.5l210.5-121.5c11.2-6.5,21.4-7.1,28.7-2.9l-4.1-2.4
		c-7.4-4.4-17.6-3.8-29,2.8L223.3,259.5c-22.5,13-40.7,44.6-40.7,70.5v114.3c0,13.2,4.7,22.4,12.3,26.6l3.9,2.3
		C191.5,468.9,186.9,459.8,186.9,446.9z"/>
	<path class="st57" d="M186.2,446.4V332.1c0-26,18.2-57.5,40.7-70.5l210.5-121.5c11.2-6.5,21.4-7.1,28.7-2.9l-2.7-1.6
		c-7.4-4.4-17.6-3.8-29,2.8L224,259.9c-22.5,13-40.7,44.6-40.7,70.5v114.3c0,13.2,4.7,22.4,12.3,26.6l2.6,1.5
		C190.8,468.5,186.2,459.4,186.2,446.4z"/>
	<path class="st58" d="M185.6,446.1V331.8c0-26,18.2-57.5,40.7-70.5l210.5-121.5c11.2-6.5,21.4-7.1,28.7-2.9l-1.1-0.7
		c-7.4-4.4-17.6-3.8-29,2.8L224.9,260.4c-22.5,13-40.7,44.6-40.7,70.5v114.3c0,13.2,4.7,22.4,12.3,26.6l1,0.6
		C190.1,468.1,185.6,459,185.6,446.1z"/>
	<path class="st34" d="M185.2,445.8V331.5c0-26,18.2-57.5,40.7-70.5l210.5-121.5c11.2-6.5,21.4-7.1,28.7-2.9l-0.3-0.2
		c-7.4-4.4-17.6-3.8-29,2.8L225.3,260.6c-22.5,13-40.7,44.6-40.7,70.5v114.3c0,13.2,4.7,22.4,12.3,26.6l0.2,0.1
		C189.7,467.9,185.2,458.8,185.2,445.8z"/>
	<path class="st57" d="M74.9,382.4V268c0-26,18.2-57.6,40.7-70.5L326.1,76c11.2-6.5,21.4-7.1,28.7-2.9l-2.7-1.6
		c-7.4-4.4-17.6-3.8-29,2.8L112.7,195.8c-22.5,13-40.7,44.6-40.7,70.5v114.3c0,13.2,4.7,22.4,12.3,26.6l2.6,1.5
		C79.4,404.4,74.9,395.3,74.9,382.4z"/>
	<path class="st58" d="M74.2,382V267.7c0-26,18.2-57.5,40.7-70.5L325.5,75.6c11.2-6.5,21.4-7.1,28.7-2.9L353,72
		c-7.4-4.4-17.6-3.8-29,2.8L113.6,196.3c-22.5,13-40.7,44.6-40.7,70.5v114.3c0,13.2,4.7,22.4,12.3,26.6l1,0.6
		C78.8,404.1,74.2,395,74.2,382z"/>
	<path class="st34" d="M73.8,381.7V267.4c0-26,18.2-57.6,40.7-70.5L325.1,75.3c11.2-6.5,21.4-7.1,28.7-2.9l-0.3-0.2
		c-7.4-4.4-17.6-3.8-29,2.8L114,196.6c-22.5,13-40.7,44.6-40.7,70.5v114.3c0,13.2,4.7,22.4,12.3,26.6l0.2,0.1
		C78.4,403.8,73.8,394.7,73.8,381.7z"/>
</g>
<g>
	<path class="st34" d="M106.3,332.9c-1.7-0.9-3.2-1-4.3-0.3l-0.1-9.7l-2.3-1.3l0.1,16.2l0,0c0,0,0,0.1,0,0.2c0,4.9,3,10.5,6.7,12.6
		c3.6,2.1,6.6-0.2,6.5-5.1C112.9,340.6,109.9,335,106.3,332.9z M106.4,347.6c-2.4-1.4-4.3-5-4.4-8.2s1.9-4.7,4.3-3.4s4.3,5,4.4,8.2
		C110.7,347.4,108.8,348.9,106.4,347.6z"/>
	<path class="st34" d="M148.5,356.8c-3.6-2.1-6.6,0.2-6.5,5.1c0,0,0,0.1,0,0.2l0,0l0.1,16.2l2.3,1.3l-0.1-9.6c1.2,2,2.7,3.7,4.3,4.6
		c3.6,2.1,6.6-0.2,6.5-5.1C155.1,364.5,152.1,358.8,148.5,356.8z M148.6,371.5c-2.4-1.4-4.3-5-4.4-8.2c0-3.2,1.9-4.7,4.3-3.4
		s4.3,5,4.4,8.2S151,372.8,148.6,371.5z"/>
	<path class="st34" d="M124.6,353.6c-0.2,0.8-0.6,1.5-1.1,2c-1.4,1.1-3.6,0.2-5.3-2.1l3.7-3l2.1-1.7l1.6-1.3c-0.2-0.5-0.4-1-0.7-1.5
		c-2.6-4.9-6.8-7.3-9.3-5.3s-2.5,7.6,0.1,12.5c2.6,4.9,6.8,7.3,9.3,5.3c1-0.8,1.6-2.1,1.8-3.7L124.6,353.6z M116.8,350.6
		c-1-2.8-0.8-5.6,0.6-6.7s3.6-0.2,5.3,2.1L116.8,350.6z"/>
	<path class="st34" d="M138.5,361.5c-0.2,0.8-0.6,1.5-1.1,2c-1.4,1.1-3.6,0.2-5.3-2.1l3.7-3l2.1-1.7l1.6-1.3c-0.2-0.5-0.4-1-0.7-1.5
		c-2.6-4.9-6.8-7.3-9.3-5.3c-2.6,2-2.5,7.6,0.1,12.5c2.6,4.9,6.8,7.3,9.3,5.3c1-0.8,1.6-2.1,1.8-3.7L138.5,361.5z M130.7,358.5
		c-1-2.8-0.8-5.6,0.6-6.7s3.6-0.2,5.3,2.1L130.7,358.5z"/>
</g>
</svg>
